<svg width="22" height="22" viewBox="0 0 22 22" fill="none" xmlns="http://www.w3.org/2000/svg">
<g clip-path="url(#clip0_58_1304)">
<path d="M21.3125 8.9375C21.1302 8.9375 20.9553 9.00993 20.8264 9.13886C20.6974 9.2678 20.625 9.44266 20.625 9.625V11.6875H19.25V10.3125C19.25 9.94783 19.1051 9.59809 18.8473 9.34023C18.5894 9.08237 18.2397 8.9375 17.875 8.9375H16.7845L13.75 5.90305C13.6228 5.77481 13.4713 5.67314 13.3045 5.60395C13.1376 5.53476 12.9587 5.49942 12.778 5.5H11V4.125H13.0625C13.2448 4.125 13.4197 4.05257 13.5486 3.92364C13.6776 3.7947 13.75 3.61984 13.75 3.4375C13.75 3.25516 13.6776 3.0803 13.5486 2.95136C13.4197 2.82243 13.2448 2.75 13.0625 2.75H7.5625C7.38016 2.75 7.2053 2.82243 7.07636 2.95136C6.94743 3.0803 6.875 3.25516 6.875 3.4375C6.875 3.61984 6.94743 3.7947 7.07636 3.92364C7.2053 4.05257 7.38016 4.125 7.5625 4.125H9.625V5.5H4.125C3.76033 5.5 3.41059 5.64487 3.15273 5.90273C2.89487 6.16059 2.75 6.51033 2.75 6.875V11.6875H1.375V9.625C1.375 9.44266 1.30257 9.2678 1.17364 9.13886C1.0447 9.00993 0.869836 8.9375 0.6875 8.9375C0.505164 8.9375 0.330295 9.00993 0.201364 9.13886C0.0724328 9.2678 0 9.44266 0 9.625L0 15.125C0 15.3073 0.0724328 15.4822 0.201364 15.6111C0.330295 15.7401 0.505164 15.8125 0.6875 15.8125C0.869836 15.8125 1.0447 15.7401 1.17364 15.6111C1.30257 15.4822 1.375 15.3073 1.375 15.125V13.0625H2.75V14.8405C2.74942 15.0212 2.78476 15.2001 2.85395 15.367C2.92314 15.5338 3.02481 15.6853 3.15305 15.8125L6.1875 18.847C6.31472 18.9752 6.46616 19.0769 6.63301 19.146C6.79987 19.2152 6.97882 19.2506 7.15945 19.25H12.778C12.9587 19.2506 13.1376 19.2152 13.3045 19.146C13.4713 19.0769 13.6228 18.9752 13.75 18.847L16.7845 15.8125H17.875C18.2397 15.8125 18.5894 15.6676 18.8473 15.4098C19.1051 15.1519 19.25 14.8022 19.25 14.4375V13.0625H20.625V15.125C20.625 15.3073 20.6974 15.4822 20.8264 15.6111C20.9553 15.7401 21.1302 15.8125 21.3125 15.8125C21.4948 15.8125 21.6697 15.7401 21.7986 15.6111C21.9276 15.4822 22 15.3073 22 15.125V9.625C22 9.44266 21.9276 9.2678 21.7986 9.13886C21.6697 9.00993 21.4948 8.9375 21.3125 8.9375ZM17.875 14.4375H16.7845C16.6038 14.4369 16.4249 14.4723 16.258 14.5414C16.0912 14.6106 15.9397 14.7123 15.8125 14.8405L12.778 17.875H7.15945L4.125 14.8405V6.875H12.778L15.8125 9.90945C15.9397 10.0377 16.0912 10.1394 16.258 10.2085C16.4249 10.2777 16.6038 10.3131 16.7845 10.3125H17.875V14.4375Z" fill="black"/>
<path d="M11.4873 8.68947L7.76932 12.2396C7.53963 12.4615 7.66883 12.8708 7.97747 12.9014L10.8808 13.1998L9.14023 15.7859C9.06128 15.9045 9.07204 16.069 9.16894 16.1723C9.2766 16.2871 9.44528 16.2909 9.55653 16.1799L13.2745 12.6298C13.5042 12.4079 13.375 11.9986 13.0664 11.968L10.163 11.6696L11.9036 9.0835C11.9825 8.96491 11.9718 8.80041 11.8749 8.69712C11.8241 8.64188 11.7551 8.61012 11.6826 8.60869C11.61 8.60726 11.5399 8.63627 11.4873 8.68947Z" fill="black"/>
</g>
<defs>
<clipPath id="clip0_58_1304">
<rect width="22" height="22" fill="white"/>
</clipPath>
</defs>
</svg>
