<svg xmlns="http://www.w3.org/2000/svg" xmlns:xlink="http://www.w3.org/1999/xlink" width="16" height="16" viewBox="0 0 16 16"><defs><style>.a{fill:none;}.b{fill:#2c2c2c;}.c{clip-path:url(#a);}</style><clipPath id="a"><rect class="a" width="16" height="16"/></clipPath></defs><g transform="translate(-330 -18)"><g transform="translate(330 18)"><g transform="translate(0 0)"><g class="c"><path d="M13.44,6.672a6.72,6.72,0,1,0-6.72,6.672,6.839,6.839,0,0,0,4.024-1.319l4.22,4.19,1.25-1.242-4.219-4.189A6.363,6.363,0,0,0,13.44,6.672M1.8,6.672a4.962,4.962,0,0,1,9.924,0,4.84,4.84,0,0,1-1.328,3.336l-.234.233A4.988,4.988,0,0,1,6.8,11.56a4.879,4.879,0,0,1-5-4.888" transform="translate(0 0)"/></g></g></g><path class="b" d="M14.765,16,10.6,11.866a6.75,6.75,0,0,1-3.971,1.3,6.584,6.584,0,1,1,6.631-6.584,6.279,6.279,0,0,1-1.426,4.057L16,14.775,14.767,16ZM1.773,6.584a4.815,4.815,0,0,0,4.935,4.823,4.92,4.92,0,0,0,3.316-1.3l.231-.23a4.774,4.774,0,0,0,1.311-3.292,4.9,4.9,0,0,0-9.793,0Z" transform="translate(330 18)"/></g></svg>