<?xml version="1.0" encoding="utf-8"?>
<!-- Generator: Adobe Illustrator 24.0.1, SVG Export Plug-In . SVG Version: 6.00 Build 0)  -->
<svg version="1.1" id="Layer_1" xmlns="http://www.w3.org/2000/svg" xmlns:xlink="http://www.w3.org/1999/xlink" x="0px" y="0px"
	 viewBox="0 0 500 500" style="enable-background:new 0 0 500 500;" xml:space="preserve">
<style type="text/css">
	.st0{fill:#010101;}
	.st1{fill-rule:evenodd;clip-rule:evenodd;fill:#010101;}
</style>
<g>
	<path class="st0" d="M62.9,437.6l26.9-100.4c-15.2-27.5-23.2-58.3-23.2-89.5c0-102.2,83.1-185.3,185.3-185.3
		c102.2,0,185.3,83.1,185.3,185.3C437.1,349.9,354,433,251.8,433c-30.7,0-61-7.7-88.1-22.5L62.9,437.6z M168.8,373l6.4,3.8
		c23.3,13.9,49.9,21.2,76.7,21.2c82.9,0,150.3-67.4,150.3-150.3c0-82.9-67.4-150.3-150.3-150.3c-82.9,0-150.3,67.4-150.3,150.3
		c0,27.4,7.6,54.3,22,77.9l3.9,6.4l-15,56L168.8,373z"/>
	<path class="st1" d="M320.8,273.5c-7.6-4.6-17.6-9.7-26.5-6c-6.9,2.8-11.3,13.6-15.8,19.1c-2.3,2.8-5,3.3-8.5,1.9
		c-25.9-10.3-45.7-27.6-60-51.4c-2.4-3.7-2-6.6,0.9-10c4.3-5.1,9.7-10.8,10.9-17.7c1.2-6.8-2-14.8-4.9-20.9
		c-3.6-7.8-7.7-18.9-15.5-23.3c-7.2-4.1-16.6-1.8-23,3.4c-11,9-16.4,23.1-16.2,37c0,4,0.5,7.9,1.5,11.7c2.2,9.2,6.5,17.8,11.3,26
		c3.6,6.2,7.5,12.1,11.8,17.9c13.8,18.8,31.1,35.1,51,47.4c10,6.1,20.7,11.5,31.8,15.1c12.5,4.1,23.6,8.4,37,5.8
		c14.1-2.7,28-11.4,33.6-25c1.7-4,2.5-8.5,1.6-12.7C339.7,282.9,327.9,277.7,320.8,273.5z"/>
</g>
</svg>
