<svg width="18" height="20" viewBox="0 0 18 20" fill="none" xmlns="http://www.w3.org/2000/svg">
<path d="M16.5 9.99999C16.5 14.6025 14.8208 18.3333 12.75 18.3333M12.75 1.66666C14.2875 1.66666 15.6092 3.72332 16.1883 6.66666M1.5 9.99999C1.5 5.39749 3.17917 1.66666 5.25 1.66666C7.32083 1.66666 9 5.39749 9 9.99999C9 14.6025 7.32083 18.3333 5.25 18.3333C3.7125 18.3333 2.39083 16.2767 1.81167 13.3333" stroke="black" stroke-width="1.5" stroke-linecap="round"/>
<path d="M5.25 18.3333C7.32083 18.3333 9 14.6025 9 9.99999C9 5.39749 7.32083 1.66666 5.25 1.66666" stroke="black" stroke-width="1.5"/>
<path d="M5.25 1.66666H12.75M5.25 18.3333H12.75M6.5 9.99999C6.5 12.7617 5.94 15 5.25 15C4.56 15 4 12.7617 4 9.99999C4 7.23832 4.56 4.99999 5.25 4.99999C5.94 4.99999 6.5 7.23832 6.5 9.99999Z" stroke="black" stroke-width="1.5"/>
<path d="M6.50033 10H5.66699" stroke="black" stroke-width="1.5" stroke-linecap="round"/>
</svg>
